<svg width="188" height="48" viewBox="0 0 188 48" fill="none" xmlns="http://www.w3.org/2000/svg">
<path d="M36.9241 4.89897V13.0728H34.1031L33.4514 14.6208L36.9241 17.784V32.723C36.9241 37.9687 38.3922 41.7459 40.8816 44.2135C43.3732 46.6832 46.9691 47.9217 51.3844 47.9217C52.8275 47.9217 54.3998 47.7521 55.7945 47.3923C56.9902 47.0839 58.0039 46.6488 58.7017 46.103L56.0546 41.768C55.5473 42.2565 54.9701 42.6219 54.2288 42.8733C53.2381 43.2093 51.9864 43.3302 50.2801 43.3302C48.371 43.3302 46.463 42.4619 45.0444 40.6937C43.6288 38.9293 42.7225 36.3006 42.7225 32.7926V17.4555H55.2842L55.8278 13.0728H42.7225V0.0390625L36.9241 4.89897Z" fill="white"/>
<path d="M6.62378 14.5557C4.3939 16.0539 3.13184 18.3478 3.13184 21.6458C3.13184 24.3771 4.01893 26.1591 5.50594 27.4903C7.03027 28.8548 9.22194 29.7809 11.9108 30.6841L11.914 30.6852L11.9171 30.6863C13.2175 31.1399 14.7793 31.4681 16.4231 31.7779C16.7806 31.8453 17.1423 31.9118 17.5054 31.9786C18.7942 32.2158 20.102 32.4564 21.3017 32.7484C22.8342 33.1213 24.2678 33.5946 25.3275 34.303C26.4114 35.0276 27.1513 36.0355 27.1513 37.4353C27.1513 39.4583 25.5131 41 23.5028 41.9996C21.4542 43.0182 18.8099 43.5909 16.3498 43.5909C10.4585 43.5909 7.1393 41.0474 5.46864 38.7039L0.922852 41.2807C3.25268 45.2481 8.96673 47.9736 16.6259 47.9736C20.0645 47.9736 23.9416 47.4049 26.9367 45.7996C29.8961 44.2134 31.9835 41.6301 31.9835 37.5049C31.9835 34.3156 30.5987 32.2824 28.4911 30.8634C26.3413 29.416 23.4382 28.6096 20.4389 27.9712C19.6197 27.7968 18.7895 27.6345 17.9691 27.4741L17.968 27.4739L17.9665 27.4736L17.9655 27.4734C15.8366 27.0573 13.7705 26.6534 12.1134 26.0816C10.9563 25.6823 9.92844 25.1802 9.18387 24.4848C8.41895 23.7704 7.96398 22.8603 7.96398 21.7154C7.96398 19.9643 9.07055 18.6517 10.5778 17.8079C12.0832 16.9651 14.068 16.5337 16.0737 16.5337C19.5277 16.5337 21.8793 17.1907 23.5188 18.1429C24.8705 18.9278 25.7049 19.8941 26.2665 20.7907L30.4984 17.777C29.6142 16.2527 28.005 14.9318 25.7566 13.9641C23.2996 12.9065 20.12 12.29 16.4188 12.29C12.2255 12.29 8.89229 13.0316 6.62378 14.5557Z" fill="white"/>
<path d="M68.8055 19.2378C70.7768 15.6619 74.588 12.7946 80.3717 12.7946C81.5676 12.7946 82.8071 12.8467 83.8989 13.0301C84.8465 13.1892 85.6221 13.4381 86.1603 13.7898L85.4302 18.8839C83.8378 18.1424 82.2029 17.873 80.2336 17.873C73.9806 17.873 68.3277 22.5179 68.3277 28.6888V47.2262H63.0124V13.2656L65.5544 12.8638L68.1714 20.3879L68.8055 19.2378Z" fill="white"/>
<path fill-rule="evenodd" clip-rule="evenodd" d="M104.55 12.2382C94.4557 12.2382 86.8454 20.1074 86.8454 30.08C86.8454 40.1206 94.4542 47.9218 104.55 47.9218C114.589 47.9218 122.53 40.1076 122.53 30.08C122.53 20.1205 114.588 12.2382 104.55 12.2382ZM92.0226 30.08C92.0226 23.2936 97.6601 17.3861 104.55 17.3861C111.426 17.3861 117.284 23.2804 117.284 30.08C117.284 37.0904 111.424 42.8434 104.55 42.8434C97.6623 42.8434 92.0226 37.0772 92.0226 30.08Z" fill="white"/>
<path d="M135.302 47.2083L121.492 13.0549H127.673L139.047 42.5394L150.492 13.0549H155.86L142.651 47.2083H135.302Z" fill="white"/>
<path fill-rule="evenodd" clip-rule="evenodd" d="M172.043 12.2382C162.247 12.2382 155.443 19.5983 155.443 29.5931C155.443 40.1569 163.018 47.9218 172.043 47.9218C178.849 47.9218 182.979 44.7695 185.916 40.5499L182.182 38.2054C180.224 41.3163 176.409 43.3303 172.25 43.3303C166.598 43.3303 160.641 38.7447 160.276 32.1299L160.242 31.5062H182.742C184.243 31.5062 185.533 31.2341 186.434 30.5963C187.297 29.985 187.884 28.9802 187.884 27.2977C187.884 26.1196 187.622 24.7191 187.421 23.9045C186.414 20.4259 184.595 17.5161 182.033 15.4757C179.472 13.4358 176.135 12.2382 172.043 12.2382ZM160.486 26.8821C161.143 21.1496 166.026 16.76 172.043 16.76C178.11 16.76 182.386 21.406 183.252 26.8565L183.36 27.5408H160.411L160.486 26.8821Z" fill="white"/>
</svg>
