<svg width="85" height="78" viewBox="0 0 85 78" fill="none" xmlns="http://www.w3.org/2000/svg">
<path fill-rule="evenodd" clip-rule="evenodd" d="M80.554 35.217H77.0049C76.8971 34.1387 76.7397 33.067 76.5338 32.0055L76.4541 31.607C75.8714 29.2174 75.3304 27.5615 69.2015 23.9754L34.9239 4.03135C34.7279 3.91474 34.5499 3.763 34.3997 3.57762C33.8382 2.88448 33.7961 1.87875 34.2343 1.11372C34.2922 1.01566 34.3558 0.919248 34.4268 0.830498C34.968 0.149016 35.8881 -0.178655 36.7331 0.0985233C36.858 0.139515 37.0156 0.214415 37.1269 0.276844L82.9279 26.9254C83.1705 27.0669 83.4015 27.2353 83.6169 27.4307C84.97 28.6572 85.3354 30.6371 84.6903 32.3023C84.6068 32.52 84.5022 32.7324 84.3889 32.9362C83.6033 34.3075 82.1162 35.2102 80.554 35.217ZM79.0518 57.5392C78.7677 57.2818 78.4624 57.061 78.1414 56.877L26.1418 26.618C18.3515 22.0853 20.4252 14.3049 22.9369 9.9207H10.0024C7.99322 9.90814 6.074 11.062 5.06445 12.8242C4.92014 13.0837 4.78704 13.3541 4.68067 13.6313C3.85924 15.7516 4.32454 18.2726 6.04737 19.8343C6.33132 20.0917 6.63651 20.3124 6.95733 20.4963L58.9573 50.7556C66.7476 55.2882 64.6739 63.0686 62.1622 67.4528H75.0961C77.1055 67.4657 79.025 66.3118 80.0347 64.5494C80.179 64.2899 80.3121 64.0194 80.4185 63.7422C81.2399 61.6219 80.7746 59.1009 79.0518 57.5392ZM4.54087 42.1542L8.09002 42.1542C8.19784 43.2325 8.35521 44.3042 8.56114 45.3657L8.64082 45.7642C9.2235 48.1538 9.76445 49.8098 15.8934 53.3958L50.171 73.3399C50.367 73.4565 50.545 73.6082 50.6952 73.7936C51.2567 74.4868 51.2988 75.4925 50.8606 76.2575C50.8027 76.3556 50.7391 76.452 50.6681 76.5407C50.1269 77.2222 49.2068 77.5499 48.3618 77.2727C48.2369 77.2317 48.0793 77.1568 47.968 77.0944L2.16709 50.4457C1.92446 50.3043 1.69342 50.1359 1.47796 49.9406C0.124904 48.7141 -0.240522 46.7341 0.404596 45.0689C0.488134 44.8512 0.592664 44.6388 0.706004 44.435C1.49162 43.0637 2.97867 42.161 4.54087 42.1542Z" fill="white"/>
</svg>
