<svg width="24" height="24" viewBox="0 0 24 24" fill="none" xmlns="http://www.w3.org/2000/svg">
<path d="M4 2C4 0.895431 4.89543 0 6 0H8C9.10457 0 10 0.895431 10 2H4Z" fill="white"/>
<path d="M4 12H10C10 13.1046 9.10457 14 8 14H6C4.89543 14 4 13.1046 4 12Z" fill="white"/>
<rect x="2" y="2" width="2" height="2" fill="white"/>
<rect x="2" y="10" width="2" height="2" fill="white"/>
<rect x="10" y="2" width="2" height="2" fill="white"/>
<rect x="10" y="10" width="2" height="2" fill="white"/>
<path d="M0 6C0 4.89543 0.895431 4 2 4V10C0.895431 10 0 9.10457 0 8V6Z" fill="white"/>
<path d="M12 4C13.1046 4 14 4.89543 14 6V8C14 9.10457 13.1046 10 12 10V4Z" fill="white"/>
<rect x="12" y="12" width="2" height="2" fill="white"/>
<rect x="14" y="14" width="2" height="2" fill="white"/>
<rect x="16" y="16" width="2" height="2" fill="white"/>
<rect x="18" y="18" width="2" height="2" fill="white"/>
</svg>
