<svg width="24" height="24" viewBox="0 0 24 24" fill="none" xmlns="http://www.w3.org/2000/svg">
<g clip-path="url(#clip0_83_1771)">
<path d="M0 10C0 8.89543 0.895431 8 2 8V16C0.895431 16 0 15.1046 0 14V10Z" fill="white"/>
<rect x="2" y="8" width="4" height="2" fill="white"/>
<rect x="18" y="8" width="4" height="2" fill="white"/>
<rect x="2" y="14" width="4" height="2" fill="white"/>
<rect x="18" y="14" width="4" height="2" fill="white"/>
<path d="M22 8C23.1046 8 24 8.89543 24 10V14C24 15.1046 23.1046 16 22 16V8Z" fill="white"/>
<rect x="8" y="18" width="2" height="4" fill="white"/>
<rect x="4" y="16" width="2" height="2" fill="white"/>
<rect x="2" y="18" width="2" height="2" fill="white"/>
<rect x="16" y="18" width="2" height="2" fill="white"/>
<rect x="18" y="16" width="2" height="2" fill="white"/>
<path d="M2 20H4V22C2.89543 22 2 21.1046 2 20Z" fill="white"/>
<rect x="18" y="20" width="2" height="2" fill="white"/>
<rect x="20" y="4" width="2" height="2" fill="white"/>
<path d="M20 2C21.1046 2 22 2.89543 22 4H20V2Z" fill="white"/>
<rect x="18" y="2" width="2" height="2" fill="white"/>
<rect x="4" y="2" width="2" height="2" fill="white"/>
<path d="M2 4C2 2.89543 2.89543 2 4 2V4H2Z" fill="white"/>
<rect x="2" y="4" width="2" height="2" fill="white"/>
<rect x="4" y="6" width="2" height="2" fill="white"/>
<rect x="4" y="20" width="2" height="2" fill="white"/>
<path d="M20 20H22C22 21.1046 21.1046 22 20 22V20Z" fill="white"/>
<rect x="20" y="18" width="2" height="2" fill="white"/>
<rect x="18" y="6" width="2" height="2" fill="white"/>
<rect x="16" y="4" width="2" height="2" fill="white"/>
<rect x="6" y="18" width="2" height="2" fill="white"/>
<rect x="14" y="18" width="2" height="4" fill="white"/>
<rect x="14" y="2" width="2" height="4" fill="white"/>
<rect x="8" y="2" width="2" height="4" fill="white"/>
<rect x="6" y="4" width="2" height="2" fill="white"/>
<path d="M8 2C8 0.895431 8.89543 0 10 0H14C15.1046 0 16 0.895431 16 2H8Z" fill="white"/>
<rect x="10" y="8" width="4" height="2" fill="white"/>
<rect x="10" y="14" width="4" height="2" fill="white"/>
<rect x="8" y="10" width="2" height="4" fill="white"/>
<rect x="14" y="10" width="2" height="4" fill="white"/>
<path d="M8 22H16C16 23.1046 15.1046 24 14 24H10C8.89543 24 8 23.1046 8 22Z" fill="white"/>
</g>
<defs>
<clipPath id="clip0_83_1771">
<rect width="24" height="24" fill="white"/>
</clipPath>
</defs>
</svg>
